<?xml version="1.0" encoding="utf-8" ?><svg xmlns="http://www.w3.org/2000/svg" xmlns:xlink="http://www.w3.org/1999/xlink" width="1024" height="1024" viewBox="0 0 1024 1024"><path d="M0 0L1024 0L1024 1024L0 1024L0 0ZM94.58 620.418L93.5679 620.42C88.9541 628.271 92.477 628.781 93.9488 635.853L95.0101 636.664L94.9833 637.011C97.3147 636.509 96.2651 636.374 98.2715 637.061C100.984 641.067 96.7356 712.634 100.424 716.325C100.712 713.823 100.514 707.412 100.488 704.61C100.4 697.162 100.36 689.714 100.369 682.265L100.103 598.587L99.9253 359.676C100.091 357.463 100.022 354.839 100.059 352.589C100.392 332.251 100.292 312.018 101.24 291.693C101.429 284.199 102.191 276.367 102.608 268.815C98.751 272.873 102.047 284.526 99.2666 285.053L96.7348 282.893L95.781 283.047C94.9622 284.826 94.7397 285.123 95.8113 286.763C95.4308 288.68 95.3352 288.642 94.2307 290.163C94.391 291.959 94.6355 292.11 95.5289 293.655L94.3604 294.813L93.7759 294.68C92.5385 294.416 91.2966 294.174 90.0508 293.953L89.5396 294.567C90.3977 295.264 90.0395 295.018 91.2792 295.218L91.4265 296.209L89.9519 295.614L89.4696 296.13L89.6061 296.904L90.3606 296.565C90.9426 297.999 91.0856 299.117 91.3688 300.623C90.9 300.913 90.4313 301.203 89.9625 301.492L90.0859 302.379L91.187 301.99L91.4895 302.801L91.1717 303.443L90.1644 303.635C89.7692 306.465 91.7627 309.227 91.4454 311.544L90.1727 312.029L89.7646 311.561C89.9329 309.882 90.4017 307.1 89.9484 305.591C87.0041 308.366 90.73 310.166 84.6598 312.954L84.651 313.311C86.9567 312.761 87.0109 311.967 89.2966 312.264C90.9016 314.911 87.7808 317.052 87.7103 319.973L89.5511 318.227L90.2321 318.424C90.6716 320.075 90.8156 320.038 90.2823 321.615C89.0019 322.723 88.6938 322.855 87.2635 323.678L87.1455 324.462L88.2945 326.017L88.4724 325.085C89.38 325.138 89.189 325.214 90.096 325.755C91.5584 325.302 91.8547 324.811 92.9128 323.72C96.4014 326.953 91.7206 331.035 86.8959 329.214L87.3637 328.037L87.0146 327.58L86.2539 328.119L86.2879 329.362C87.2893 330.135 87.4949 330.2 88.6509 330.751L88.9474 331.436L87.7153 332.999C88.0519 334.278 87.7214 333.719 89.0108 334.529C89.6107 334.189 89.7757 334.016 90.4738 333.957L90.3521 334.825C88.7971 335.269 87.7296 334.907 86.1272 334.616L86.119 335.106C87.2832 336.131 86.7551 335.814 88.3938 336.128L88.7699 337.071L87.537 338.499C89.1391 340.155 89.1888 339.685 89.5061 341.555L89.0544 341.989L87.4399 341.837C87.5056 343.681 89.1166 343.842 89.5712 346.289L89.2424 346.953L87.6418 347.12L87.6308 347.789L90.8695 349.13C91.0852 350.559 91.1316 349.819 90.1191 351.377L92.7577 351.509L93.1506 352.533C92.6269 353.407 92.5305 353.557 91.858 354.319L92.2073 355.495L91.5388 355.969C90.5412 355.003 90.0974 354.507 89.2141 353.432L89.0874 353.413C87.149 358.847 91.3527 360.18 92.3068 363.736C93.2127 367.112 92.8577 373.279 93.7171 377.487C95.0735 375.4 94.1522 374.625 95.2768 373.98C97.3317 375.926 94.5625 377.447 95.177 380.158C96.5147 380.49 96.9901 380.782 98.2818 380.587L98.1246 452.374C98.114 456.74 98.472 460.632 98.8473 464.968C99.2552 469.68 97.7292 475.535 97.9271 480.022C98.2628 487.635 99.4128 496.297 98.0681 503.93L97.5735 504.015L96.2256 501.496L95.8456 501.964C96.3289 503.913 95.573 503.205 97.0924 504.463L99.1138 504.828C99.3448 507.583 97.6086 506.804 97.7143 508.484C97.8569 510.748 99.1217 516.674 98.6456 518.689C93.8641 521.753 94.878 524.52 96.5982 529.327L96.9749 529.231C96.9155 526.288 96.6472 523.223 97.3569 520.413L98.0139 519.954C98.1224 520.167 98.128 552.696 98.0691 555.978C97.9335 563.533 98.9953 573.927 99.0146 581.322L98.9607 614.714C98.9731 619.508 99.0968 624.424 98.8165 629.205C98.6233 632.502 100.598 633.453 98.7171 635.872L97.6884 635.872C96.1585 631.914 99.1827 622.208 94.9722 615.754L95.0436 616.358C95.2384 618.142 95.4779 618.841 94.58 620.418ZM193.067 899.71C191.766 898.295 183.981 894.336 181.419 892.293C178.212 891.007 169.344 883.9 166.571 881.611C143.294 862.448 125.441 837.524 114.79 809.318L113.267 810.19C113.735 813.281 115.48 813.22 115.039 815.661C112.748 814.473 112.698 811.64 111.044 811.74C111.756 816.113 115.767 825.39 118.462 828.915L118.993 828.723C119.251 827.36 119.101 827.33 118.658 825.973C120.029 825.555 119.507 825.656 120.996 825.769L119.83 826.977L120.088 827.344C121.348 829.169 121.468 830.467 122.451 832.411L122.323 833.368C122.104 833.339 120.848 832.263 120.625 832.086C120.762 833.268 121.388 833.802 122.153 834.885L122.868 835.084L123.036 834.039L123.357 834.021C126.234 839.477 138.32 859.22 143.362 861.834L144.492 861.389L144.788 861.648L144.125 862.735C145.178 865.654 153.13 873.652 155.487 875.069L155.882 874.819C154.612 873.268 151.455 870.543 151.047 869.242C153.321 869.175 162.342 881.246 164.242 883.062C165.366 882.892 164.835 883.079 165.746 882.256C172.723 891.915 179.169 892.477 188.561 899.636L189.706 899.081C190.73 899.844 191.427 899.856 192.654 900.07L193.067 899.71ZM149.517 884.082L149.919 884.771C152.091 885.944 153.661 886.819 155.42 888.536C155.449 889.589 155.53 890.279 155.66 891.326L155.961 890.148C159.776 890.27 160.576 891.924 162.615 894.5L162.494 895.032C161.155 893.922 161.881 894.148 160.349 894.071L167.948 899.475L168.438 899.11C167.869 898.297 168.139 898.63 167.422 897.845L166.891 897.273L168.24 897.155L168.529 896.803C166.856 896.055 165.674 895.766 164.416 894.499L164.718 893.868L165.755 893.679C166.343 894.907 166.879 895.628 168.277 895.485C168.55 893.816 168.614 894.627 167.967 892.976C165.45 891.842 166.301 893.332 163.955 892.694L163.834 891.836C164.667 891.404 165.321 891.019 166.125 890.533L166.008 889.586C164.499 887.94 161.535 885.601 159.334 885.237L158.736 885.868L158.946 888.692L158.27 888.751C156.403 887.278 155.139 886.132 154.864 883.654C153.515 882.982 153.008 883.309 151.257 883.407L150.607 882.608L150.842 881.758L152.494 882.081L152.962 881.666L152.102 880.793C152.001 879.771 152.108 879.297 152.374 878.306C151.391 877.22 150.621 877.242 149.152 876.928L148.57 876.808L148.696 876.257C149.109 876.369 149.523 876.481 149.936 876.592L151.038 876.016C148.728 873.911 144.129 875.579 143.754 872.778C144.389 872.509 144.891 872.28 145.509 871.987L144.985 871.138C143.781 870.912 143.219 870.784 142.052 870.421L143.25 869.038C142.448 867.372 137.608 865.693 137.108 864.732C134.944 860.572 131.376 855.891 129.13 852.242L129.645 851.238L130.708 851.364L131.875 853.407L132.503 853.485C133.036 851.274 130.692 848.896 128.912 847.959L128.379 848.405C128.198 851.146 127.999 852.208 129.089 854.81L128.63 855.202C127.313 854.175 127.901 854.736 127.275 852.724L126.461 853.146C126.665 853.924 126.882 854.699 127.112 855.471C129.688 856.97 130.026 857.207 129.592 860.105L129.48 860.811C131.38 863.572 135.676 865.762 137.706 869.605L137.359 870.082L136.748 869.355L136.823 870.38C138.616 870.652 139.004 870.455 140.313 871.459C139.798 872.594 139.761 872.542 139.684 873.769C140.758 872.961 140.749 872.795 142.044 872.653C142.579 873.764 142.826 876.663 143.752 878.806L143.444 878.458C144.53 881.373 144.875 881.41 147.794 882.924L148.339 883.202C148.637 883.434 149.214 883.919 149.517 884.082ZM418.078 935.03L418.246 936.336L419.707 937.298L419.678 937.497C418.598 937.845 415.24 936.998 412.99 937.079C408.22 937.252 399.189 939.294 394.918 938.013L394.997 937.705C396.434 937.588 398.295 937.599 399.522 936.979L399.25 936.53C396.394 936.465 395.195 936.287 393.503 937.934C392.982 938.44 389.071 936.151 387.553 936.817C389.033 941.633 403.619 940.287 407.578 940.458L405.923 940.763L410.366 940.669C411.008 939.706 410.779 940.253 410.65 938.827L414.825 938.327L413.536 939.829L413.656 940.178C416.5 940.187 419.167 940.276 421.891 941.194C422.856 941.519 427.924 939.782 428.157 939.886C433.258 942.16 433.907 940.724 438.49 940.01C442.364 939.407 447.202 941.518 451.747 939.95C453.366 941.488 452.684 941.241 454.662 941.718L455.792 940.475C460.185 940.334 464.225 940.852 468.361 940.891C469.312 940.858 469.722 940.862 470.683 941.006C473.168 941.379 476.554 940.094 478.949 940.267C487.259 940.866 494.115 940.81 502.453 940.111C503.19 938.957 503.144 939.531 502.923 938.394C500.14 936.815 496.344 939.367 493.422 938.128L493.156 937.082C489.668 937.723 488.203 939.212 483.814 939.465C483.288 938.878 482.751 938.301 482.201 937.737C473.177 938.464 464.111 937.898 454.773 938.233L454.573 938.646L455.073 939.349C453.785 939.768 454.445 939.664 453.046 939.383C452.864 938.55 452.828 938.416 452.375 937.653C447.224 937.92 448.937 940.864 442.551 937.503L442.052 937.765L442.577 939.17C441.399 939.617 440.109 938.555 439.264 937.767L440.091 936.865C439.067 936.556 439.316 936.568 438.797 936.88C435.291 938.991 431.707 936.484 430.858 936.663C427.126 937.447 425.51 940.003 420.672 939.036L420.091 938.545L421.89 936.483C421.01 935.815 419.406 935.798 418.078 935.03ZM563.022 939.963C563.607 940.116 564.198 940.243 564.794 940.346C566.369 940.607 570.108 940.78 571.824 940.723C576.025 940.581 579.921 942.41 583.224 939.75C585.423 940.308 597.72 942.343 599.489 941.918C599.626 940.966 599.436 941.371 600.015 940.681C601.176 941.1 600.742 941.07 601.924 941.038L601.239 939.833C602.367 939.211 607.3 941.241 609.021 941.686L609.391 941.249C608.71 940.466 608.429 940.428 608.284 939.656C610.123 940.086 609.255 939.658 610.685 941.505L611.64 941.578C612.38 940.963 613.061 940.311 613.729 939.618L614.993 939.676L614.152 941.604C615.755 942.302 619.095 939.482 622.033 940.525C624.99 941.575 629.966 938.455 633.002 941.058L633.463 940.841L633.624 939.456C634.912 940.264 634.709 940.232 635.631 941.484C636.514 940.476 635.995 940.887 637.195 940.256L638.721 941.034C639.885 940.034 640.581 939.181 640.74 937.698L640.282 937.251C638.797 937.767 638.444 938.266 637.008 937.531C637.07 937.563 635.062 938.901 633.909 937.729C633.968 937.789 630.472 938.276 630.013 938.335L628.485 937.128C626.302 937.058 627.864 938.102 625.305 938.975C625.534 938.025 625.543 938.496 625.281 937.561C617.709 937.113 614.418 939.179 610.78 939.081L610.039 937.989C607.715 937.525 607.872 938.904 605.453 938.864L605.152 937.484C602.82 936.226 600.572 938.481 600.199 939.501C600.072 939.849 597.59 937.761 595.506 938.081L596.155 938.806L595.39 939.877C593.618 939.865 594.306 940.176 592.982 939.395L594.479 937.802C592.998 937.316 588.471 938.872 586.661 939.369C584.198 938.227 580.696 938.169 578.164 939.059C574.164 934.173 569.136 938.352 564.327 938.271C562.674 938.243 562.765 940.318 562.864 941.389C563.296 940.562 563.197 941.03 563.022 939.963ZM97.9929 771.863L96.3254 773.258C96.4385 775.827 97.952 775.812 97.8117 779.066L97.136 779.895L96.5052 779.752L96.3696 778.188C95.0462 779.168 94.7828 779.588 93.2574 780.029C92.6368 778.43 92.204 777.822 91.146 776.485C91.0763 778.264 91.1218 779.351 90.6247 781.085C89.5255 780.931 90.0218 781.102 89.1215 780.615L88.4816 781.472L88.9319 782.013L90.7032 781.299C92.0804 782.159 91.9974 782.178 92.7104 784.235L92.7225 783.943C93.1019 786.689 92.3398 792.91 92.4662 793.349L92.5231 793.386L93.1866 792.986L93.2595 791.211L93.9801 790.944C94.9924 792.089 95.7589 793.1 96.6759 794.308L97.5308 794.326C97.5468 792.967 97.5468 793.241 97.283 791.902L97.869 791.54C99.1494 793.081 99.5092 793.544 100.507 795.264L101.058 795.452C101.151 793.732 97.7232 787.902 99.7668 784.512C100.197 783.797 100.84 782.081 101.272 781.203L101.052 780.588L100.16 780.945C98.2909 779.018 98.0331 774.884 98.6885 772.436L97.9929 771.863ZM920.99 763.851C918.933 775.665 917.189 784.986 914.229 796.619C915.054 796.15 915.47 795.748 916.174 795.116L917.654 795.523L918.131 796.422C917.638 797.97 918.059 797.351 916.885 798.39L915.941 797.356C916.029 798.985 917.043 802.9 918.271 804.107L919.089 803.224C918.973 802.226 919.051 802.645 918.806 801.615L918.623 800.869C919.725 798.026 921.909 798.518 922.123 796.274L921.571 795.968L920.326 796.818C919.714 793.039 924.103 784.72 922.932 781.256C921.494 780.59 921.177 780.516 919.912 779.514C919.86 776.718 921.045 773.201 921.301 770.372C921.471 768.491 921.166 765.773 920.99 763.851Z"/><defs><linearGradient id="gradient_0" gradientUnits="userSpaceOnUse" x1="512.45691" y1="922.85803" x2="511.08835" y2="104.68288"><stop offset="0" stop-color="#0E6FF6"/><stop offset="1" stop-color="#10B2FF"/></linearGradient></defs><path fill="url(#gradient_0)" d="M123.222 196.487C141.463 158.618 179.833 126.299 219.49 113.142C267.68 97.1532 323.129 100.387 373.529 100.21L524.208 99.9L649.254 100.155C670.395 100.133 691.563 100.16 712.652 100.449C750.774 100.972 788.04 103.741 822.933 120.459C857.817 137.172 887.483 166.109 903.917 201.235C926.33 250.412 924.045 297.832 924.056 350.823L924.066 453.456L924.068 627.066C924.066 668.394 925.058 710.389 922.139 751.611C921.854 755.635 921.173 759.873 920.99 763.851C918.933 775.665 917.189 784.986 914.229 796.619C904.084 826.501 892.852 847.831 870.325 870.55C868.135 872.758 860.162 880.307 857.877 881.606C804.319 928.261 731.304 924.119 664.974 924.127L541.89 924.128L383.283 924.126C349.555 924.127 315.504 924.747 281.842 922.784C247.062 920.756 224.039 915.053 193.067 899.71C191.766 898.295 183.981 894.336 181.419 892.293C178.212 891.007 169.344 883.9 166.571 881.611C143.294 862.448 125.441 837.524 114.79 809.318C106.335 788.365 102.948 762.804 101.583 740.406C101.108 732.616 101.262 723.939 100.424 716.325C100.712 713.823 100.514 707.412 100.488 704.61C100.4 697.162 100.36 689.714 100.369 682.265L100.103 598.587L99.9253 359.676C100.091 357.463 100.022 354.839 100.059 352.589C100.392 332.251 100.292 312.018 101.24 291.693C101.429 284.199 102.191 276.367 102.608 268.815C103.23 267.587 104.482 254.422 104.993 251.875C108.483 234.464 113.674 211.671 123.222 196.487Z"/><path fill="#61ABEB" d="M123.222 196.487C141.463 158.618 179.833 126.299 219.49 113.142C267.68 97.1532 323.129 100.387 373.529 100.21L524.208 99.9L649.254 100.155C670.395 100.133 691.563 100.16 712.652 100.449C750.774 100.972 788.04 103.741 822.933 120.459C857.817 137.172 887.483 166.109 903.917 201.235C903.239 201.242 902.562 201.248 901.884 201.254C900.067 198.219 895.25 189.852 893.757 187.478C878.308 163.338 857.138 143.386 832.126 129.392C780.043 100.506 718.461 104.471 660.771 104.397L540.384 104.004L377.956 104.341C330.984 104.539 273.051 101.516 228.346 114.434C193.826 124.452 163.274 144.954 140.92 173.101C135.991 179.262 131.51 185.926 127.38 192.642C126.115 194.698 125.886 196.482 123.222 196.487Z"/><path fill="#0E60D4" d="M181.419 892.293C185.214 892.797 191.25 897.622 195.566 899.752C208.637 906.204 221.153 911.468 235.356 914.906C237.177 915.742 240.241 915.397 241.923 915.947C246.235 917.358 250.634 918.404 255.206 918.74L255.493 918.241C254.614 917.643 255.11 917.837 254.245 917.691C234.771 914.411 216.261 908.624 198.942 899.029L198.462 898.769L198.432 898.337C200.943 899.056 204.001 901.015 206.534 902.169C230.332 913.014 257.104 917.462 283.116 918.984C316.788 920.954 350.9 920.261 384.686 920.269L544.25 920.288L666.337 920.275C722.483 920.261 783.982 923.515 834.178 894.278C840.548 890.567 847.561 885.165 853.732 881.954L853.616 882.498C848.181 887.457 836.445 894.369 829.966 897.962C801.63 913.676 768.023 919.374 736 920.895C722.608 921.531 708.851 921.16 695.625 922.071C706.816 922.592 718.289 923.741 729.5 922.297C734.931 921.597 753.655 922.044 757.651 919.928C760.331 920.542 760.39 919.879 763.033 919.64C797.775 916.497 829.501 902.383 857.144 881.624C857.389 881.618 857.633 881.612 857.877 881.606C804.319 928.261 731.304 924.119 664.974 924.127L541.89 924.128L383.283 924.126C349.555 924.127 315.504 924.747 281.842 922.784C247.062 920.756 224.039 915.053 193.067 899.71C191.766 898.295 183.981 894.336 181.419 892.293Z"/><path fill="#FDFDFE" d="M420.182 142.262C432.257 141.748 447.416 142.032 459.663 142.014L625.949 142.352L677.341 142.459C705.39 142.546 736.478 143.018 763.696 150.33C790.225 157.33 814.425 171.234 833.833 190.627C881.922 238.718 881.95 295.181 882.009 358.326L882.023 590.082L882.018 662.333C882.014 693.413 882.294 729.149 875.135 759.276C868.501 787.618 854.066 813.537 833.463 834.098C787.755 879.578 734.168 881.927 673.817 881.99L603.25 881.999L418.241 881.998L355.999 881.996C326.453 881.97 292.053 881.882 263.473 874.671C236.375 867.975 211.561 854.151 191.604 834.634C141.541 785.485 142.57 726.829 142.477 661.811L142.065 573.195L141.997 418.228L142.427 353.4C142.701 323.511 142.523 290.627 150.19 261.601C157.037 234.972 170.846 210.645 190.199 191.114C235.941 145.011 289.201 142.596 349.874 142.446L420.182 142.262Z"/><defs><linearGradient id="gradient_1" gradientUnits="userSpaceOnUse" x1="511.50861" y1="870.63397" x2="512.01208" y2="152.8804"><stop offset="0" stop-color="#1070F5"/><stop offset="1" stop-color="#12B1FD"/></linearGradient></defs><path fill="url(#gradient_1)" d="M393.217 152.245C405.626 152.276 418.035 152.224 430.444 152.089L609.648 152.208L669.229 152.42C697.918 152.478 730.819 152.332 758.704 159.346C784.118 165.603 807.375 178.596 826.027 196.957C869.009 239.506 871.642 288.698 871.97 344.939L872.005 586.289L871.997 662.019C871.994 691.302 872.342 726.616 865.872 754.958C859.9 782.151 846.29 807.075 826.641 826.8C788.208 865.359 744.066 870.741 693.001 871.775C672.585 872.036 652.167 872.109 631.75 871.995L423.109 872.003L358.446 871.999C329.729 871.985 295.857 872.073 268.097 865.516C242.526 859.626 219.014 846.956 200.033 828.838C160.47 791.051 153.123 744.914 152.656 693.185C152.431 668.21 152.479 643.184 152.372 618.212L152.013 453.383C151.749 420.327 151.881 387.268 152.408 354.215C152.762 326.964 152.381 297.496 158.247 270.797C163.857 244.107 176.822 219.519 195.674 199.812C250.465 142.987 321.444 153.729 393.217 152.245Z"/><defs><linearGradient id="gradient_2" gradientUnits="userSpaceOnUse" x1="513.72998" y1="841.00232" x2="513.2583" y2="177.49768"><stop offset="0" stop-color="#5DA0FA"/><stop offset="1" stop-color="#5EC9FF"/></linearGradient></defs><path fill="url(#gradient_2)" d="M501.646 177.185C685.107 170.637 839.167 313.996 845.821 497.453C852.475 680.91 709.205 835.053 525.751 841.813C342.148 848.578 187.852 705.165 181.193 521.558C174.533 337.951 318.035 183.738 501.646 177.185Z"/><defs><linearGradient id="gradient_3" gradientUnits="userSpaceOnUse" x1="513.35229" y1="835.00159" x2="513.14832" y2="183.49886"><stop offset="0" stop-color="#1173F4"/><stop offset="1" stop-color="#13AEFC"/></linearGradient></defs><path fill="url(#gradient_3)" d="M500.159 183.217C680.382 175.844 832.451 315.982 839.796 496.206C847.141 676.431 706.979 828.478 526.753 835.794C346.568 843.109 194.561 702.985 187.218 522.801C179.875 342.616 319.976 190.588 500.159 183.217Z"/><path fill="#FDFDFE" d="M250.522 542.941C242.966 472.337 263.75 401.622 308.309 346.337C352.215 292.482 415.651 258.193 484.758 250.962C554.283 243.633 623.848 264.45 677.918 308.765C732.3 353.054 766.754 417.216 773.634 487.012C780.821 557.434 759.582 627.809 714.638 682.499C688.453 714.288 655.232 739.551 617.602 756.288C609.937 759.68 600.126 763.667 592.1 765.761C588.884 766.468 585.699 767.309 582.553 768.279C538.373 780.279 486.097 781.808 441.898 768.685C438.288 767.945 435.402 766.542 431.541 765.785C388.686 753.112 346.424 724.412 316.791 691.284C313.002 687.047 309.326 681.938 305.451 677.95L304.935 677.425C301.397 675.218 294.754 665.623 292.148 661.794C273.125 633.557 259.749 601.903 252.759 568.58C250.999 560.271 248.939 551.266 250.522 542.941Z"/><path fill="#61ABEB" d="M372.679 362.899C392.058 360.95 413.16 370.763 429.637 380.249C434.482 383.038 440.592 387.441 445.447 389.776C451.823 389.457 462.464 386.446 469.436 385.295C487.089 382.37 505 381.303 522.876 382.111C534.403 382.7 545.882 384.004 557.247 386.015C563.469 387.151 569.621 388.645 575.857 389.656C577.658 389.948 579.073 389.462 580.57 388.527C601.95 375.172 625.373 360.293 651.947 363.351L652.289 364.103C657.494 382.338 660.194 398.671 656.295 417.586C655.182 422.986 651.277 427.475 655.196 431.712C662.363 440.231 667.41 448.087 671.934 458.348C678.129 475.426 680.561 488.307 679.825 506.789C677.988 541.533 671.039 574.952 643.818 599.19C621.382 619.169 591.65 626.909 562.571 630.163C561.407 630.293 561.259 630.385 560.495 631.154C561.104 631.934 561.118 632.063 561.87 632.681C566.592 637.746 568.025 640.184 571.272 646.33C578.402 665.13 577.634 676.536 577.555 696.14L577.356 733.311C577.254 743.198 576.763 748.252 578.06 758.151C575.564 763.878 579.28 765.019 582.553 768.279C538.373 780.279 486.097 781.808 441.898 768.685C444.918 764.209 448.343 765.183 445.784 758.379C446.69 754.987 446.915 752.017 446.882 748.527C446.746 734.399 446.182 720.166 446.59 706.043C433.402 708.347 399.702 711.885 389.807 701.922C355.355 687.186 363.105 670.337 342.556 644.674C335.298 635.609 324.62 632.907 318.8 623.485C318.476 616.755 328.125 616.817 333.058 617.345C354.639 619.654 365.224 635.388 376.281 651.661C392.946 676.186 423.325 677.454 447.868 666.066C448.015 653.708 455.576 639.744 463.938 630.737C390.376 622.614 348.3 588.867 344.84 511.342C343.39 478.87 349.477 453.924 371.558 429.159C363.288 405.931 365.505 385.857 372.679 362.899Z"/><path fill="#5291C5" d="M318.8 623.485C318.476 616.755 328.125 616.817 333.058 617.345C354.639 619.654 365.224 635.388 376.281 651.661C392.946 676.186 423.325 677.454 447.868 666.066C449.042 673.489 436.296 675.212 430.825 676.461C412.019 681.17 387.568 673.996 376.4 657.334C361.863 635.644 348.532 617.282 318.8 623.485Z"/><path fill="#E7E6E5" d="M389.807 701.922C394.324 703.35 396.451 704.134 403.585 705.431C416.73 707.82 432.513 706.234 445.771 703.584C445.976 703.722 446.181 703.86 446.385 703.998L446.59 706.043C433.402 708.347 399.702 711.885 389.807 701.922Z"/><path fill="#5291C5" d="M372.679 362.899C373.224 361.576 373.645 359.675 375.083 359.11C378.613 357.722 382.811 358.131 386.496 358.753C408.052 362.394 428.546 373.993 446.45 386.109C490.439 375.129 533.858 373.876 577.88 386.096C597.248 373.444 619.001 360.392 642.646 358.21C645.272 357.967 648.563 358.334 650.577 360.179C651.068 361.266 651.521 362.233 651.947 363.351C625.373 360.293 601.95 375.172 580.57 388.527C579.073 389.462 577.658 389.948 575.857 389.656C569.621 388.645 563.469 387.151 557.247 386.015C545.882 384.004 534.403 382.7 522.876 382.111C505 381.303 487.089 382.37 469.436 385.295C462.464 386.446 451.823 389.457 445.447 389.776C440.592 387.441 434.482 383.038 429.637 380.249C413.16 370.763 392.058 360.95 372.679 362.899Z"/><path fill="#E7E6E5" d="M671.934 458.348C680.435 468.019 683.053 498.395 681.63 510.783C680.826 543.103 672.179 576.392 648.115 599.283C626.515 619.83 597.781 627.886 569.002 631.714C566.707 632.02 564.11 632.18 561.87 632.681C561.118 632.063 561.104 631.934 560.495 631.154C561.259 630.385 561.407 630.293 562.571 630.163C591.65 626.909 621.382 619.169 643.818 599.19C671.039 574.952 677.988 541.533 679.825 506.789C680.561 488.307 678.129 475.426 671.934 458.348Z"/><path fill="#5291C5" d="M250.522 542.941C252.306 551.821 253.285 560.783 255.203 569.801C261.063 597.023 271.128 623.165 285.037 647.288C288.381 653.02 291.938 658.625 295.7 664.091C298.465 668.071 302.535 673.405 304.935 677.425C301.397 675.218 294.754 665.623 292.148 661.794C273.125 633.557 259.749 601.903 252.759 568.58C250.999 560.271 248.939 551.266 250.522 542.941Z"/><path fill="#E7E6E5" d="M571.272 646.33C583.66 658.239 578.491 710.708 579.337 728.83C579.83 739.407 578.454 749.939 580.039 761.283L578.06 758.151C576.763 748.252 577.254 743.198 577.356 733.311L577.555 696.14C577.634 676.536 578.402 665.13 571.272 646.33Z"/><path fill="#E7E6E5" d="M652.289 364.103C655.898 366.665 657.883 378.234 658.619 382.557C660.595 394.165 660.862 406.712 658.525 418.296C657.786 421.963 655.559 428.542 655.196 431.712C651.277 427.475 655.182 422.986 656.295 417.586C660.194 398.671 657.494 382.338 652.289 364.103Z"/><path fill="#5291C5" d="M445.784 758.379C448.343 765.183 444.918 764.209 441.898 768.685C438.288 767.945 435.402 766.542 431.541 765.785C438.572 765.495 442.078 764.645 445.784 758.379Z"/><path fill="#5291C5" d="M578.06 758.151L580.039 761.283C584.293 765.398 586.435 765.516 592.1 765.761C588.884 766.468 585.699 767.309 582.553 768.279C579.28 765.019 575.564 763.878 578.06 758.151Z"/><defs><linearGradient id="gradient_4" gradientUnits="userSpaceOnUse" x1="83.651619" y1="328.73724" x2="99.954689" y2="329.58908"><stop offset="0" stop-color="#040405" stop-opacity="0"/><stop offset="1" stop-color="black" stop-opacity="0.082352944"/></linearGradient></defs><path fill="url(#gradient_4)" d="M95.5289 293.655L95.6101 294.122C96.713 294.324 96.778 294.862 97.7133 296C99.194 292.949 96.8433 290.908 97.5855 288.917C98.3975 288.748 99.0436 288.564 99.7868 288.194C100.764 289.165 100.88 290.321 101.24 291.693C100.292 312.018 100.392 332.251 100.059 352.589C100.022 354.839 100.091 357.463 99.9253 359.676C97.6999 367.526 95.5809 371.803 96.9389 379.631C97.3847 379.952 97.8323 380.271 98.2818 380.587C96.9901 380.782 96.5147 380.49 95.177 380.158C94.5625 377.447 97.3317 375.926 95.2768 373.98C94.1522 374.625 95.0735 375.4 93.7171 377.487C92.8577 373.279 93.2127 367.112 92.3068 363.736C91.3527 360.18 87.149 358.847 89.0874 353.413L89.2141 353.432C90.0974 354.507 90.5412 355.003 91.5388 355.969L92.2073 355.495L91.858 354.319C92.5305 353.557 92.6269 353.407 93.1506 352.533L92.7577 351.509L90.1191 351.377C91.1316 349.819 91.0852 350.559 90.8695 349.13L87.6308 347.789L87.6418 347.12L89.2424 346.953L89.5712 346.289C89.1166 343.842 87.5056 343.681 87.4399 341.837L89.0544 341.989L89.5061 341.555C89.1888 339.685 89.1391 340.155 87.537 338.499L88.7699 337.071L88.3938 336.128C86.7551 335.814 87.2832 336.131 86.119 335.106L86.1272 334.616C87.7296 334.907 88.7971 335.269 90.3521 334.825L90.4738 333.957C89.7757 334.016 89.6107 334.189 89.0108 334.529C87.7214 333.719 88.0519 334.278 87.7153 332.999L88.9474 331.436L88.6509 330.751C87.4949 330.2 87.2893 330.135 86.2879 329.362L86.2539 328.119L87.0146 327.58L87.3637 328.037L86.8959 329.214C91.7206 331.035 96.4014 326.953 92.9128 323.72C91.8547 324.811 91.5584 325.302 90.096 325.755C89.189 325.214 89.38 325.138 88.4724 325.085L88.2945 326.017L87.1455 324.462L87.2635 323.678C88.6938 322.855 89.0019 322.723 90.2823 321.615C90.8156 320.038 90.6716 320.075 90.2321 318.424L89.5511 318.227L87.7103 319.973C87.7808 317.052 90.9016 314.911 89.2966 312.264C87.0109 311.967 86.9567 312.761 84.651 313.311L84.6598 312.954C90.73 310.166 87.0041 308.366 89.9484 305.591C90.4017 307.1 89.9329 309.882 89.7646 311.561L90.1727 312.029L91.4454 311.544C91.7627 309.227 89.7692 306.465 90.1644 303.635L91.1717 303.443L91.4895 302.801L91.187 301.99L90.0859 302.379L89.9625 301.492C90.4313 301.203 90.9 300.913 91.3688 300.623C91.0856 299.117 90.9426 297.999 90.3606 296.565L89.6061 296.904L89.4696 296.13L89.9519 295.614L91.4265 296.209L91.2792 295.218C90.0395 295.018 90.3977 295.264 89.5396 294.567L90.0508 293.953C91.2966 294.174 92.5385 294.416 93.7759 294.68L94.3604 294.813L95.5289 293.655Z"/><path d="M98.2818 380.587C97.8323 380.271 97.3847 379.952 96.9389 379.631C95.5809 371.803 97.6999 367.526 99.9253 359.676L100.103 598.587L100.369 682.265C100.36 689.714 100.4 697.162 100.488 704.61C100.514 707.412 100.712 713.823 100.424 716.325C96.7356 712.634 100.984 641.067 98.2715 637.061C96.2651 636.374 97.3147 636.509 94.9833 637.011L95.0101 636.664C97.3105 631.74 93.6911 628.028 94.1402 622.761C94.2007 622.053 94.5911 621.899 94.58 620.418C95.4779 618.841 95.2384 618.142 95.0436 616.358L94.9722 615.754C99.1827 622.208 96.1585 631.914 97.6884 635.872L98.7171 635.872C100.598 633.453 98.6233 632.502 98.8165 629.205C99.0968 624.424 98.9731 619.508 98.9607 614.714L99.0146 581.322C98.9953 573.927 97.9335 563.533 98.0691 555.978C98.128 552.696 98.1224 520.167 98.0139 519.954L97.3569 520.413C96.6472 523.223 96.9155 526.288 96.9749 529.231L96.5982 529.327C94.878 524.52 93.8641 521.753 98.6456 518.689C99.1217 516.674 97.8569 510.748 97.7143 508.484C97.6086 506.804 99.3448 507.583 99.1138 504.828L97.0924 504.463C95.573 503.205 96.3289 503.913 95.8456 501.964L96.2256 501.496L97.5735 504.015L98.0681 503.93C99.4128 496.297 98.2628 487.635 97.9271 480.022C97.7292 475.535 99.2552 469.68 98.8473 464.968C98.472 460.632 98.114 456.74 98.1246 452.374L98.2818 380.587Z"/><path d="M114.79 809.318C125.441 837.524 143.294 862.448 166.571 881.611C169.344 883.9 178.212 891.007 181.419 892.293C183.981 894.336 191.766 898.295 193.067 899.71L192.654 900.07C191.427 899.856 190.73 899.844 189.706 899.081L188.561 899.636C179.169 892.477 172.723 891.915 165.746 882.256C164.835 883.079 165.366 882.892 164.242 883.062C162.342 881.246 153.321 869.175 151.047 869.242C151.455 870.543 154.612 873.268 155.882 874.819L155.487 875.069C153.13 873.652 145.178 865.654 144.125 862.735L144.788 861.648L144.492 861.389L143.362 861.834C138.32 859.22 126.234 839.477 123.357 834.021L123.036 834.039L122.868 835.084L122.153 834.885C121.388 833.802 120.762 833.268 120.625 832.086C120.848 832.263 122.104 833.339 122.323 833.368L122.451 832.411C121.468 830.467 121.348 829.169 120.088 827.344L119.83 826.977L120.996 825.769C119.507 825.656 120.029 825.555 118.658 825.973C119.101 827.33 119.251 827.36 118.993 828.723L118.462 828.915C115.767 825.39 111.756 816.113 111.044 811.74C112.698 811.64 112.748 814.473 115.039 815.661C115.48 813.22 113.735 813.281 113.267 810.19L114.79 809.318Z"/><path d="M418.078 935.03C419.406 935.798 421.01 935.815 421.89 936.483L420.091 938.545L420.672 939.036C425.51 940.003 427.126 937.447 430.858 936.663C431.707 936.484 435.291 938.991 438.797 936.88C439.316 936.568 439.067 936.556 440.091 936.865L439.264 937.767C440.109 938.555 441.399 939.617 442.577 939.17L442.052 937.765L442.551 937.503C448.937 940.864 447.224 937.92 452.375 937.653C452.828 938.416 452.864 938.55 453.046 939.383C454.445 939.664 453.785 939.768 455.073 939.349L454.573 938.646L454.773 938.233C464.111 937.898 473.177 938.464 482.201 937.737C482.751 938.301 483.288 938.878 483.814 939.465C488.203 939.212 489.668 937.723 493.156 937.082L493.422 938.128C496.344 939.367 500.14 936.815 502.923 938.394C503.144 939.531 503.19 938.957 502.453 940.111C494.115 940.81 487.259 940.866 478.949 940.267C476.554 940.094 473.168 941.379 470.683 941.006C469.722 940.862 469.312 940.858 468.361 940.891C464.225 940.852 460.185 940.334 455.792 940.475L454.662 941.718C452.684 941.241 453.366 941.488 451.747 939.95C447.202 941.518 442.364 939.407 438.49 940.01C433.907 940.724 433.258 942.16 428.157 939.886C427.924 939.782 422.856 941.519 421.891 941.194C419.167 940.276 416.5 940.187 413.656 940.178L413.536 939.829L414.825 938.327L410.65 938.827C410.779 940.253 411.008 939.706 410.366 940.669L405.923 940.763L407.578 940.458C403.619 940.287 389.033 941.633 387.553 936.817C389.071 936.151 392.982 938.44 393.503 937.934C395.195 936.287 396.394 936.465 399.25 936.53L399.522 936.979C398.295 937.599 396.434 937.588 394.997 937.705L394.918 938.013C399.189 939.294 408.22 937.252 412.99 937.079C415.24 936.998 418.598 937.845 419.678 937.497L419.707 937.298L418.246 936.336L418.078 935.03Z"/><path d="M148.339 883.202L147.794 882.924C144.875 881.41 144.53 881.373 143.444 878.458L143.752 878.806C142.826 876.663 142.579 873.764 142.044 872.653C140.749 872.795 140.758 872.961 139.684 873.769C139.761 872.542 139.798 872.594 140.313 871.459C139.004 870.455 138.616 870.652 136.823 870.38L136.748 869.355L137.359 870.082L137.706 869.605C135.676 865.762 131.38 863.572 129.48 860.811L129.592 860.105C130.026 857.207 129.688 856.97 127.112 855.471C126.882 854.699 126.665 853.924 126.461 853.146L127.275 852.724C127.901 854.736 127.313 854.175 128.63 855.202L129.089 854.81C127.999 852.208 128.198 851.146 128.379 848.405L128.912 847.959C130.692 848.896 133.036 851.274 132.503 853.485L131.875 853.407L130.708 851.364L129.645 851.238L129.13 852.242C131.376 855.891 134.944 860.572 137.108 864.732C137.608 865.693 142.448 867.372 143.25 869.038L142.052 870.421C143.219 870.784 143.781 870.912 144.985 871.138L145.509 871.987C144.891 872.28 144.389 872.509 143.754 872.778C144.129 875.579 148.728 873.911 151.038 876.016L149.936 876.592C149.523 876.481 149.109 876.369 148.696 876.257L148.57 876.808L149.152 876.928C150.621 877.242 151.391 877.22 152.374 878.306C152.108 879.297 152.001 879.771 152.102 880.793L152.962 881.666L152.494 882.081L150.842 881.758L150.607 882.608L151.257 883.407C153.008 883.309 153.515 882.982 154.864 883.654C155.139 886.132 156.403 887.278 158.27 888.751L158.946 888.692L158.736 885.868L159.334 885.237C161.535 885.601 164.499 887.94 166.008 889.586L166.125 890.533C165.321 891.019 164.667 891.404 163.834 891.836L163.955 892.694C166.301 893.332 165.45 891.842 167.967 892.976C168.614 894.627 168.55 893.816 168.277 895.485C166.879 895.628 166.343 894.907 165.755 893.679L164.718 893.868L164.416 894.499C165.674 895.766 166.856 896.055 168.529 896.803L168.24 897.155L166.891 897.273L167.422 897.845C168.139 898.63 167.869 898.297 168.438 899.11L167.948 899.475L160.349 894.071C161.881 894.148 161.155 893.922 162.494 895.032L162.615 894.5C160.576 891.924 159.776 890.27 155.961 890.148L155.66 891.326C155.53 890.279 155.449 889.589 155.42 888.536C153.661 886.819 152.091 885.944 149.919 884.771L149.517 884.082C149.975 881.607 148.194 880.124 146.103 879.299L145.508 879.643C146.017 881.621 146.638 881.753 148.339 883.202Z"/><path d="M578.164 939.059C580.696 938.169 584.198 938.227 586.661 939.369C588.471 938.872 592.998 937.316 594.479 937.802L592.982 939.395C594.306 940.176 593.618 939.865 595.39 939.877L596.155 938.806L595.506 938.081C597.59 937.761 600.072 939.849 600.199 939.501C600.572 938.481 602.82 936.226 605.152 937.484L605.453 938.864C607.872 938.904 607.715 937.525 610.039 937.989L610.78 939.081C614.418 939.179 617.709 937.113 625.281 937.561C625.543 938.496 625.534 938.025 625.305 938.975C627.864 938.102 626.302 937.058 628.485 937.128L630.013 938.335C630.472 938.276 633.968 937.789 633.909 937.729C635.062 938.901 637.07 937.563 637.008 937.531C638.444 938.266 638.797 937.767 640.282 937.251L640.74 937.698C640.581 939.181 639.885 940.034 638.721 941.034L637.195 940.256C635.995 940.887 636.514 940.476 635.631 941.484C634.709 940.232 634.912 940.264 633.624 939.456L633.463 940.841L633.002 941.058C629.966 938.455 624.99 941.575 622.033 940.525C619.095 939.482 615.755 942.302 614.152 941.604L614.993 939.676L613.729 939.618C613.061 940.311 612.38 940.963 611.64 941.578L610.685 941.505C609.255 939.658 610.123 940.086 608.284 939.656C608.429 940.428 608.71 940.466 609.391 941.249L609.021 941.686C607.3 941.241 602.367 939.211 601.239 939.833L601.924 941.038C600.742 941.07 601.176 941.1 600.015 940.681C599.436 941.371 599.626 940.966 599.489 941.918C597.72 942.343 585.423 940.308 583.224 939.75C579.921 942.41 576.025 940.581 571.824 940.723C570.108 940.78 566.369 940.607 564.794 940.346C564.198 940.243 563.607 940.116 563.022 939.963C565.809 938.966 574.262 939.38 578.164 939.059Z"/><path d="M920.99 763.851C921.166 765.773 921.471 768.491 921.301 770.372C921.045 773.201 919.86 776.718 919.912 779.514C921.177 780.516 921.494 780.59 922.932 781.256C924.103 784.72 919.714 793.039 920.326 796.818L921.571 795.968L922.123 796.274C921.909 798.518 919.725 798.026 918.623 800.869L918.806 801.615C919.051 802.645 918.973 802.226 919.089 803.224L918.271 804.107C917.043 802.9 916.029 798.985 915.941 797.356L916.885 798.39C918.059 797.351 917.638 797.97 918.131 796.422L917.654 795.523L916.174 795.116C915.47 795.748 915.054 796.15 914.229 796.619C917.189 784.986 918.933 775.665 920.99 763.851Z"/><defs><linearGradient id="gradient_5" gradientUnits="userSpaceOnUse" x1="89.513641" y1="786.95526" x2="101.77608" y2="784.67676"><stop offset="0" stop-color="#07070A" stop-opacity="0"/><stop offset="1" stop-color="black" stop-opacity="0.035294119"/></linearGradient></defs><path fill="url(#gradient_5)" d="M97.9929 771.863L98.6885 772.436C98.0331 774.884 98.2909 779.018 100.16 780.945L101.052 780.588L101.272 781.203C100.84 782.081 100.197 783.797 99.7668 784.512C97.7232 787.902 101.151 793.732 101.058 795.452L100.507 795.264C99.5092 793.544 99.1494 793.081 97.869 791.54L97.283 791.902C97.5468 793.241 97.5468 792.967 97.5308 794.326L96.6759 794.308C95.7589 793.1 94.9924 792.089 93.9801 790.944L93.2595 791.211L93.1866 792.986L92.5231 793.386L92.4662 793.349C92.3398 792.91 93.1019 786.689 92.7225 783.943L92.7104 784.235C91.9974 782.178 92.0804 782.159 90.7032 781.299L88.9319 782.013L88.4816 781.472L89.1215 780.615C90.0218 781.102 89.5255 780.931 90.6247 781.085C91.1218 779.351 91.0763 778.264 91.146 776.485C92.204 777.822 92.6368 778.43 93.2574 780.029C94.7828 779.588 95.0462 779.168 96.3696 778.188L96.5052 779.752L97.136 779.895L97.8117 779.066C97.952 775.812 96.4385 775.827 96.3254 773.258L97.9929 771.863Z"/><defs><linearGradient id="gradient_6" gradientUnits="userSpaceOnUse" x1="94.528656" y1="287.81946" x2="98.291679" y2="288.92059"><stop offset="0" stop-color="#010102" stop-opacity="0.0078431377"/><stop offset="1" stop-color="black" stop-opacity="0.050980393"/></linearGradient></defs><path fill="url(#gradient_6)" d="M95.5289 293.655C94.6355 292.11 94.391 291.959 94.2307 290.163C95.3352 288.642 95.4308 288.68 95.8113 286.763C94.7397 285.123 94.9622 284.826 95.781 283.047L96.7348 282.893L99.2666 285.053C102.047 284.526 98.751 272.873 102.608 268.815C102.191 276.367 101.429 284.199 101.24 291.693C100.88 290.321 100.764 289.165 99.7868 288.194C99.0436 288.564 98.3975 288.748 97.5855 288.917C96.8433 290.908 99.194 292.949 97.7133 296C96.778 294.862 96.713 294.324 95.6101 294.122L95.5289 293.655Z"/><path d="M95.0101 636.664L93.9488 635.853C92.477 628.781 88.9541 628.271 93.5679 620.42L94.58 620.418C94.5911 621.899 94.2007 622.053 94.1402 622.761C93.6911 628.028 97.3105 631.74 95.0101 636.664Z"/><path d="M563.022 939.963C563.197 941.03 563.296 940.562 562.864 941.389C562.765 940.318 562.674 938.243 564.327 938.271C569.136 938.352 574.164 934.173 578.164 939.059C574.262 939.38 565.809 938.966 563.022 939.963Z"/><path d="M148.339 883.202C146.638 881.753 146.017 881.621 145.508 879.643L146.103 879.299C148.194 880.124 149.975 881.607 149.517 884.082C149.214 883.919 148.637 883.434 148.339 883.202Z"/></svg>